<svg xmlns="http://www.w3.org/2000/svg" version="1.1" viewBox="276.93056 127.4271744 456.699904 768" style="max-height: 500px" width="456.699904" height="768">
<path transform="translate(0,0)" fill="#FDFDFD" d="M0 0 C337.92 0 675.84 0 1024 0 C1024 337.92 1024 675.84 1024 1024 C686.08 1024 348.16 1024 0 1024 C0 686.08 0 348.16 0 0 Z"/>
<path transform="translate(571.64453125,140.765625)" fill="#6763AB" d="M0 0 C6.91429872 -0.34813252 11.98453006 0.69775688 17.35546875 5.234375 C24.74031949 14.11174294 24.77159847 22.19598657 24.35546875 33.234375 C24.02646027 36.09204864 23.33488738 38.53704561 22.35546875 41.234375 C22.08347656 42.13542969 21.81148437 43.03648437 21.53125 43.96484375 C13.44049532 68.17695347 -6.73650896 86.60579708 -24.44384766 104.04882812 C-29.52723294 109.06224101 -34.54625613 114.07286909 -39.17724609 119.51538086 C-41.45839242 122.18785195 -43.87120867 124.72921841 -46.26953125 127.296875 C-49.29739419 130.55392641 -52.19256822 133.80594689 -54.70703125 137.484375 C-55.66609375 138.845625 -55.66609375 138.845625 -56.64453125 140.234375 C-57.30453125 140.234375 -57.96453125 140.234375 -58.64453125 140.234375 C-58.92433838 140.82718262 -59.20414551 141.41999023 -59.49243164 142.03076172 C-60.55109913 144.05566801 -61.66660941 145.70442934 -63.078125 147.4921875 C-63.55668945 148.10843994 -64.03525391 148.72469238 -64.52832031 149.35961914 C-65.04104492 150.01953857 -65.55376953 150.67945801 -66.08203125 151.359375 C-72.61754202 159.93253215 -78.2519563 168.90922356 -83.64453125 178.234375 C-84.20116455 179.18280273 -84.20116455 179.18280273 -84.76904297 180.15039062 C-107.21103179 218.68149545 -112.43427572 265.23514658 -101.64453125 308.234375 C-94.799518 333.99898838 -83.31310617 355.78485409 -67.64453125 377.234375 C-67.20367187 377.8418457 -66.7628125 378.44931641 -66.30859375 379.07519531 C-62.35801881 384.50723585 -58.44027519 389.52196942 -53.64453125 394.234375 C-52.421929 395.59670322 -51.21214335 396.97071708 -50.01953125 398.359375 C-48.37457126 400.27229227 -46.76750028 402.118144 -44.93359375 403.8515625 C-43.64453125 405.234375 -43.64453125 405.234375 -43.64453125 407.234375 C-42.76861328 407.60369141 -42.76861328 407.60369141 -41.875 407.98046875 C-39.27525394 409.44197223 -37.88308688 411.01920678 -35.95703125 413.296875 C-30.85146864 419.13301728 -25.3781743 424.55890662 -19.84887695 429.99243164 C-15.22236745 434.56455553 -10.84846958 439.27123487 -6.64453125 444.234375 C-6.14131348 444.82573242 -5.6380957 445.41708984 -5.11962891 446.02636719 C2.362358 454.91511703 8.66744081 464.10796163 14.35546875 474.234375 C13.69546875 474.564375 13.03546875 474.894375 12.35546875 475.234375 C11.87078125 474.533125 11.38609375 473.831875 10.88671875 473.109375 C-10.2380902 443.20964541 -47.0994639 427.96150012 -79.59472656 413.68334961 C-111.59617037 399.60688239 -142.45525359 383.44829515 -169.64453125 361.234375 C-170.47210938 360.55906738 -170.47210938 360.55906738 -171.31640625 359.87011719 C-183.52417289 349.84132691 -195.37840923 339.09599891 -204.64453125 326.234375 C-205.4900552 325.12597433 -206.3379181 324.01935585 -207.1875 322.9140625 C-213.88156369 314.12320417 -219.57965701 305.05243891 -224.64453125 295.234375 C-224.969375 294.6053125 -225.29421875 293.97625 -225.62890625 293.328125 C-230.40554587 283.93145689 -233.75684502 274.35749978 -236.64453125 264.234375 C-237.01320313 263.1 -237.381875 261.965625 -237.76171875 260.796875 C-238.78245379 256.67780261 -238.98780663 252.9584103 -238.95703125 248.734375 C-238.95356689 247.95481445 -238.95010254 247.17525391 -238.9465332 246.37207031 C-238.74376302 235.34406104 -237.55668001 222.65808033 -229.33203125 214.546875 C-225.087229 210.54134135 -221.31488736 208.139452 -215.39453125 207.734375 C-208.22702211 208.01237282 -201.9576767 211.44212396 -197.08203125 216.609375 C-194.37704983 220.07632301 -193.82197011 222.88712286 -193.64453125 227.234375 C-192.98453125 227.234375 -192.32453125 227.234375 -191.64453125 227.234375 C-190.98453125 230.864375 -190.32453125 234.494375 -189.64453125 238.234375 C-188.98453125 238.234375 -188.32453125 238.234375 -187.64453125 238.234375 C-187.64453125 242.194375 -187.64453125 246.154375 -187.64453125 250.234375 C-185.63359375 249.863125 -185.63359375 249.863125 -183.58203125 249.484375 C-179.49960024 249.05565576 -176.78094837 249.43346476 -173.265625 251.8203125 C-164.85222477 259.15923029 -161.29188116 269.83044608 -158.26953125 280.234375 C-155.93900522 288.18580266 -152.76981008 296.48418911 -145.64453125 301.234375 C-142.51931292 301.40136732 -142.51931292 301.40136732 -139.64453125 301.234375 C-138.5635495 286.25076685 -144.96139124 272.9865318 -151.23706055 259.71655273 C-165.35429685 229.85273002 -171.94190451 199.08517125 -172.08203125 166.109375 C-172.09156326 164.96838852 -172.09156326 164.96838852 -172.10128784 163.80435181 C-172.17738509 149.20376003 -170.24125762 134.91264004 -166.45703125 120.796875 C-166.14620605 119.63720215 -166.14620605 119.63720215 -165.82910156 118.45410156 C-159.14720737 94.70797257 -146.14233239 69.32794786 -124.484375 55.89453125 C-118.95335919 52.98945566 -113.89704514 52.08007674 -107.64453125 51.984375 C-106.63390625 51.95859375 -105.62328125 51.9328125 -104.58203125 51.90625 C-101.20123059 52.28389263 -99.4136509 53.30638726 -96.64453125 55.234375 C-95.77828125 55.811875 -94.91203125 56.389375 -94.01953125 56.984375 C-89.95608274 60.8339578 -88.49059339 65.10204422 -88.26953125 70.609375 C-88.46108283 75.53141769 -89.75816105 79.71172513 -91.64453125 84.234375 C-91.9384375 84.95753906 -92.23234375 85.68070312 -92.53515625 86.42578125 C-95.53415061 93.03923522 -99.74455309 98.69146483 -103.97583008 104.5480957 C-107.53350826 109.52379646 -110.77382903 114.58882546 -113.76953125 119.921875 C-114.31818848 120.89181396 -114.31818848 120.89181396 -114.87792969 121.88134766 C-118.03905766 127.63556488 -120.0961007 132.61135633 -119.64453125 139.234375 C-119.31453125 139.894375 -118.98453125 140.554375 -118.64453125 141.234375 C-110.61105795 141.10685955 -106.24001869 138.9999955 -100.64453125 133.234375 C-87.77049497 117.67824782 -79.43902018 98.99431079 -70.89355469 80.8671875 C-68.25981947 75.31554548 -65.51422769 69.82230371 -62.72070312 64.34960938 C-61.951513 62.83775291 -61.18779719 61.32310623 -60.42773438 59.80664062 C-35.20926726 9.55931892 -35.20926726 9.55931892 -10.64453125 1.234375 C-7.08351569 0.6204068 -3.59405333 0.31852762 0 0 Z"/>
<path transform="translate(440.046875,614.89453125)" fill="#282929" d="M0 0 C33.68586335 -0.87985464 68.55428892 10.47860498 96.953125 28.10546875 C98.14191374 28.76434699 99.3307159 29.42320101 100.51953125 30.08203125 C103.94526195 32.20177655 106.45496149 33.93897736 108.953125 37.10546875 C109.76346635 42.34986102 108.94617402 46.93530879 107.953125 52.10546875 C104.71801099 74.31801582 106.12422615 99.29641459 110.578125 121.23046875 C113.10792742 133.81290709 113.10792742 133.81290709 111.953125 137.10546875 C109.34151432 140.01792674 106.21232589 141.97606218 102.953125 144.10546875 C101.08882779 145.46670163 99.23519696 146.84262391 97.390625 148.23046875 C95.86695313 149.37322266 95.86695313 149.37322266 94.3125 150.5390625 C81.72815459 160.09760204 69.17369577 170.18935906 58.38989258 181.78662109 C56.953125 183.10546875 56.953125 183.10546875 54.953125 183.10546875 C54.68886719 183.70875 54.42460937 184.31203125 54.15234375 184.93359375 C52.89557426 187.20969745 51.79872338 188.27365308 49.765625 189.85546875 C46.35229124 192.66104536 43.55980469 195.74113796 40.703125 199.1015625 C39.02327923 201.02513589 37.27662281 202.81860371 35.453125 204.60546875 C32.43898918 207.57282198 29.65395167 210.67892167 26.89453125 213.8828125 C24.66508439 216.43523758 22.37311118 218.92434389 20.078125 221.41796875 C15.9875194 225.90344427 12.10494657 230.51127419 8.29296875 235.234375 C5.76579696 238.3353287 3.17715409 241.37737926 0.578125 244.41796875 C-3.8806265 249.64267455 -8.15877511 254.99001847 -12.34326172 260.43676758 C-14.74087022 263.53718582 -17.20284778 266.4066123 -20.046875 269.10546875 C-18.76189294 261.90663768 -16.92538729 255.01496431 -14.734375 248.04296875 C-14.10226137 245.99888436 -13.47075452 243.95461223 -12.83984375 241.91015625 C-12.53224121 240.91725586 -12.22463867 239.92435547 -11.90771484 238.90136719 C-10.75746739 235.16550962 -9.64432366 231.41962588 -8.546875 227.66796875 C-8.35230713 227.00418213 -8.15773926 226.34039551 -7.95727539 225.65649414 C-6.77542527 221.61648171 -5.6023349 217.57394166 -4.4296875 213.53125 C-1.20443675 202.42346463 2.07567416 191.33611175 5.46386719 180.27685547 C7.21207824 174.56504501 8.91503152 168.84257874 10.578125 163.10546875 C12.10283339 157.84997205 13.75132498 152.66075391 15.515625 147.48046875 C17.23742657 142.412219 18.7347907 137.34451586 20.078125 132.16796875 C20.41199219 130.935625 20.74585938 129.70328125 21.08984375 128.43359375 C21.96266761 125.24730794 21.96266761 125.24730794 22.41015625 122.52734375 C22.890625 120.41796875 22.890625 120.41796875 24.953125 117.10546875 C28.18193271 115.84737746 31.41418428 115.00558078 34.7734375 114.16015625 C39.317794 112.65281441 41.64913144 110.22524906 43.953125 106.10546875 C46.71144601 100.2236135 46.97720388 94.11930811 45.37109375 87.82421875 C42.91115533 81.98326907 38.42388375 79.01716171 32.953125 76.10546875 C27.58175649 74.31501258 22.63141117 74.56500371 17.265625 76.29296875 C11.46467345 79.46707432 7.05618427 82.67945431 4.953125 89.10546875 C4.10308904 96.54590698 4.45379393 102.9245695 8.953125 109.10546875 C9.71625 109.76546875 10.479375 110.42546875 11.265625 111.10546875 C12.953125 113.10546875 12.953125 113.10546875 12.72265625 116.671875 C12.03102041 121.2748486 10.73346965 125.61461979 9.328125 130.04296875 C6.87690706 137.96604433 4.59193393 145.92196696 2.390625 153.91796875 C0.18906554 161.88003565 -2.17998849 169.71309619 -4.87109375 177.5234375 C-6.21013131 181.602831 -7.36040137 185.71275963 -8.484375 189.85546875 C-10.8608397 198.60705833 -13.56161695 207.2360229 -16.33251953 215.86962891 C-17.40091521 219.21356863 -18.4425454 222.56567837 -19.484375 225.91796875 C-21.52575491 232.46634587 -23.59469057 239.00586694 -25.671875 245.54296875 C-26.10584595 246.91062378 -26.10584595 246.91062378 -26.54858398 248.3059082 C-28.33556418 253.92147166 -30.16720701 259.52024275 -32.046875 265.10546875 C-32.376875 265.10546875 -32.706875 265.10546875 -33.046875 265.10546875 C-33.14709961 263.79803711 -33.24732422 262.49060547 -33.35058594 261.14355469 C-36.02737614 224.98849502 -36.02737614 224.98849502 -41.046875 189.10546875 C-41.22219757 188.11015137 -41.22219757 188.11015137 -41.40106201 187.09472656 C-46.95591932 155.7269697 -53.87143283 125.0039054 -65.046875 95.10546875 C-65.33788086 94.32445801 -65.62888672 93.54344727 -65.92871094 92.73876953 C-67.26267187 89.17854698 -68.62625707 85.63202783 -70.046875 82.10546875 C-69.47839844 81.54859375 -68.90992188 80.99171875 -68.32421875 80.41796875 C-63.33531983 75.48737082 -58.56271426 70.47169333 -54.046875 65.10546875 C-53.34820312 64.28433594 -52.64953125 63.46320312 -51.9296875 62.6171875 C-46.18091918 55.74452503 -40.97488274 48.58540747 -36.046875 41.10546875 C-35.63791992 40.48510742 -35.22896484 39.86474609 -34.80761719 39.22558594 C-29.2292885 30.69276138 -24.26897313 22.00478371 -19.8359375 12.82421875 C-19.54243408 12.22351563 -19.24893066 11.6228125 -18.9465332 11.00390625 C-18.30379427 9.64761372 -17.69379907 8.27560745 -17.10620117 6.89453125 C-14.64235961 1.35996635 -14.64235961 1.35996635 -11.70703125 0.10546875 C-10.84980469 0.10546875 -9.99257813 0.10546875 -9.109375 0.10546875 C-7.64757812 0.08033203 -7.64757812 0.08033203 -6.15625 0.0546875 C-4.10435933 0.08819828 -2.05093593 0.07099394 0 0 Z"/>
<path transform="translate(528,350)" fill="#1D9481" d="M0 0 C0.33 0 0.66 0 1 0 C0.99887207 0.82387207 0.99774414 1.64774414 0.99658203 2.49658203 C1.07437232 26.81788467 3.85560956 47.48217544 16 69 C16.81404297 70.52753906 16.81404297 70.52753906 17.64453125 72.0859375 C24.14020084 83.87613096 32.59026557 94.77321825 41.76953125 104.59375 C43.6114905 106.58087241 45.38150562 108.60042089 47.1472168 110.65429688 C50.88492151 114.93135279 54.83558321 118.94697392 58.875 122.9375 C59.60315918 123.66187256 60.33131836 124.38624512 61.08154297 125.13256836 C63.38525646 127.42418303 65.69219474 129.71250652 68 132 C71.04464779 135.01785081 74.08582967 138.03913416 77.125 141.0625 C77.81062012 141.73982178 78.49624023 142.41714355 79.20263672 143.11499023 C83.13711569 147.02970523 86.88088484 151.05147166 90.50032043 155.25973511 C93.21733974 158.41263085 96.06413279 161.44959326 98.88671875 164.5078125 C101.1763522 167.20797172 103.05356562 170.04458222 105 173 C107.30442223 175.98473801 109.63332478 178.94799586 111.9765625 181.90234375 C114.23051153 185.35288734 115.07378836 188.02127364 116 192 C116.66 192 117.32 192 118 192 C118 193.32 118 194.64 118 196 C118.66 196 119.32 196 120 196 C123.42857143 203.28571429 123.42857143 203.28571429 123 208 C123.66 208 124.32 208 125 208 C125.63214379 210.10203154 126.25527002 212.20677516 126.875 214.3125 C127.39707031 216.07013672 127.39707031 216.07013672 127.9296875 217.86328125 C132.57027764 235.01662476 133.44745337 254.94290309 128 272 C127.76893555 272.72880371 127.53787109 273.45760742 127.29980469 274.20849609 C116.8025889 306.61782458 94.15441322 328.90589127 64.45678711 344.41796875 C58.25713238 347.53323381 51.90920859 350.19189556 45.4375 352.6875 C44.52653564 353.03901123 43.61557129 353.39052246 42.67700195 353.75268555 C37.86338144 355.53532063 37.86338144 355.53532063 36 356 C35.34 355.67 34.68 355.34 34 355 C34.98226562 354.34257813 34.98226562 354.34257813 35.984375 353.671875 C55.35552327 340.21056857 69.69890944 321.78846206 74.62060547 298.35205078 C78.61146993 273.61074561 70.24519249 249.90674336 56 230 C55.53400391 229.34612305 55.06800781 228.69224609 54.58789062 228.01855469 C48.2207944 219.15760902 41.46925283 210.95666439 34 203 C32.91003876 201.7557751 31.82626561 200.50609054 30.75 199.25 C28.5087276 196.65985029 26.20316295 194.14613185 23.84375 191.6640625 C16.99797083 184.45538597 10.53802637 177.14745403 4.5078125 169.2421875 C2.30133485 166.35239183 -0.0520714 163.61952538 -2.4375 160.875 C-12.0947119 149.11612867 -19.71308691 135.23543384 -25 121 C-25.31324219 120.16210938 -25.62648438 119.32421875 -25.94921875 118.4609375 C-35.92832656 90.13000703 -31.99607254 56.2025375 -19.20703125 29.3671875 C-13.99960387 18.86875388 -7.98121521 8.65310323 0 0 Z"/>
<path transform="translate(661.20703125,210.8046875)" fill="#F4AB2F" d="M0 0 C10.98002987 -0.36317629 21.62794124 1.29573286 30.203125 8.65625 C34.9802469 13.2807857 36.06735469 16.45700031 36.29296875 23.0703125 C35.99183907 31.75744738 34.00320129 36.32422591 27.79296875 42.3203125 C10.11937933 56.9202342 -15.86536498 60.50703713 -37.62939453 65.46777344 C-59.39783101 70.4617582 -79.50400347 77.01539203 -99.37939453 87.25927734 C-100.94793106 88.06261278 -102.52764166 88.84406459 -104.109375 89.62109375 C-129.1509323 102.3866395 -150.11147075 124.92299006 -165.20703125 148.1953125 C-166.67106688 143.8032056 -164.75800625 140.67146584 -163.08203125 136.5703125 C-162.72729736 135.69729492 -162.37256348 134.82427734 -162.00708008 133.92480469 C-154.65849154 116.33754263 -145.7273617 99.40847395 -134.20703125 84.1953125 C-133.14548828 82.78958984 -133.14548828 82.78958984 -132.0625 81.35546875 C-128.0881161 76.2679438 -123.83180051 71.45080971 -119.4765625 66.6875 C-117.99743262 65.06325754 -116.53545006 63.42318034 -115.09375 61.765625 C-89.22069725 32.15587908 -51.31744063 7.84752289 -12.20703125 1.1953125 C-11.45164062 1.06640625 -10.69625 0.9375 -9.91796875 0.8046875 C-6.62020796 0.34899692 -3.3217225 0.20229735 0 0 Z"/>
<path transform="translate(435.1640625,544.07421875)" fill="#292929" d="M0 0 C3.24766686 1.06018877 5.88096906 2.57514971 8.80957031 4.31469727 C18.20302317 9.88334546 27.89666043 14.14530115 38.0859375 17.98828125 C38.75040894 18.23944702 39.41488037 18.49061279 40.0994873 18.74938965 C42.76971704 19.7574535 45.44085389 20.76305521 48.11340332 21.76495361 C78.95429046 33.34350601 110.01499397 47.37316721 132.8359375 71.92578125 C133.6609375 72.77140625 134.4859375 73.61703125 135.3359375 74.48828125 C137.35755106 77.77340329 136.63929266 79.20356903 135.8359375 82.92578125 C132.28576449 97.42232104 132.28576449 97.42232104 126.8359375 100.92578125 C123.32080918 101.34797615 121.54467216 101.45256069 118.66015625 99.30859375 C117.95503906 98.56351563 117.24992188 97.8184375 116.5234375 97.05078125 C88.58652624 70.52734467 40.40733481 59.92408649 2.99804688 60.83300781 C-0.99596789 61.00438604 -4.95700249 61.44353844 -8.9140625 62 C-11.1640625 61.92578125 -11.1640625 61.92578125 -12.91015625 60.67578125 C-15.33943163 57.28539068 -15.54021619 53.93102338 -15.1640625 49.92578125 C-13.46439174 43.7681345 -11.01804201 37.63374026 -8.1640625 31.92578125 C-7.77977792 25.27676435 -7.74448286 18.88171447 -9.4765625 12.42578125 C-10.41499766 8.46349945 -10.41499766 8.46349945 -9.2890625 6.05078125 C-6.87925435 3.06720925 -4.01375136 -0.13765573 0 0 Z"/>
<path transform="translate(619.3125,300.8125)" fill="#E15058" d="M0 0 C0.72123047 -0.01224609 1.44246094 -0.02449219 2.18554688 -0.03710938 C10.74172616 -0.06013049 17.85480618 1.90011609 24.6875 7.1875 C28.06480712 10.82459998 29.47868014 13.41253123 30.0625 18.375 C29.57273838 23.35424318 28.2067481 26.598023 24.6875 30.1875 C21.47502074 31.9935465 18.22202731 33.1702458 14.6875 34.1875 C14.03523437 34.37828125 13.38296875 34.5690625 12.7109375 34.765625 C-0.3488732 37.48851989 -13.403474 32.39319759 -25.53125 28.01953125 C-38.19821865 24.23011507 -52.87301952 25.25172995 -65.3125 29.1875 C-66.64342714 29.53031457 -67.97594054 29.86734738 -69.3125 30.1875 C-69.3125 29.5275 -69.3125 28.8675 -69.3125 28.1875 C-67.16400325 26.3772772 -65.02031291 24.70865086 -62.75 23.0625 C-62.07686768 22.57257568 -61.40373535 22.08265137 -60.71020508 21.57788086 C-46.13385483 11.19911294 -30.64760973 5.15353477 -13.3125 1.1875 C-12.50039063 0.98898437 -11.68828125 0.79046875 -10.8515625 0.5859375 C-7.23789171 0.01886916 -3.64808269 0.00320852 0 0 Z"/>
<path transform="translate(362,278)" fill="#6C5AAE" d="M0 0 C6.47902188 2.68922474 10.19180558 6.68156256 13 13 C15.59457962 21.01011159 14.39722971 30.55136676 12.51171875 38.6015625 C11.63948971 42.68971997 11.33644971 46.8386483 11 51 C8.61407541 50.28422262 6.2292215 49.56615019 3.84765625 48.8359375 C2.07664225 48.31605136 0.29328644 47.83462241 -1.50390625 47.4140625 C-10.2671986 45.2478554 -18.19184286 40.39289242 -23.125 32.6875 C-26.47382306 26.66206289 -26.76486669 20.78067209 -26 14 C-23.69493154 8.06038375 -19.62809512 4.16108275 -14.203125 0.9296875 C-9.65207809 -0.99078974 -4.81607817 -0.68283166 0 0 Z"/>
<path transform="translate(656,164)" fill="#6659AD" d="M0 0 C3.46706062 2.94700153 4.29465387 5.50099539 4.9375 9.875 C5.30792767 15.95543474 3.64839911 19.91525995 -0.125 24.6875 C-8.76751304 31.63908658 -18.23315708 32.1683224 -28.9375 32.0625 C-29.81212891 32.05798828 -30.68675781 32.05347656 -31.58789062 32.04882812 C-33.72529047 32.03714834 -35.86265463 32.01921689 -38 32 C-37.76235862 19.81547849 -34.70034244 9.69518614 -26.109375 0.78125 C-18.05605903 -6.01932793 -8.72282665 -5.11221755 0 0 Z"/>
<path transform="translate(373,292)" fill="#3D3993" d="M0 0 C1.48046875 1.08984375 1.48046875 1.08984375 3 3 C3.87776769 10.2581006 3.17224613 17.51193498 1.51171875 24.6015625 C0.63948971 28.68971997 0.33644971 32.8386483 0 37 C-2.38592459 36.28422262 -4.7707785 35.56615019 -7.15234375 34.8359375 C-8.92335775 34.31605136 -10.70671356 33.83462241 -12.50390625 33.4140625 C-20.40472828 31.46105031 -28.08806975 27.23961651 -32.7734375 20.41796875 C-34.03970679 17.92172451 -34.60560077 15.76079459 -35 13 C-31 13 -31 13 -28.4375 14.5 C-23.010797 16.86801586 -17.19293083 17.19154608 -11.58203125 15.09765625 C-9.68776699 14.12809659 -7.83931275 13.0701456 -6 12 C-5.34 12 -4.68 12 -4 12 C-2.33510818 8.07561214 -1.12795963 4.10899581 0 0 Z"/>
<path transform="translate(366,492)" fill="#1592D0" d="M0 0 C3.52703694 0.58491249 5.22328781 1.83621604 7.7578125 4.31640625 C8.81258789 5.33371826 8.81258789 5.33371826 9.88867188 6.37158203 C10.62666016 7.09458496 11.36464844 7.81758789 12.125 8.5625 C20.4054777 16.51168847 28.66329253 23.69970304 38.3828125 29.87109375 C38.91648437 30.24363281 39.45015625 30.61617187 40 31 C40 31.33 40 31.66 40 32 C27.49378243 32.39702278 15.98016382 29.51425093 6.5390625 20.7890625 C2.28215852 15.84068173 -0.29181998 10.44090516 -0.3125 3.875 C-0.209375 2.59625 -0.10625 1.3175 0 0 Z"/>
<path transform="translate(661.20703125,210.8046875)" fill="#FDDA3A" d="M0 0 C11.01452025 -0.3643171 21.55171248 1.33324683 30.19921875 8.625 C32.60849848 10.99884915 34.32754179 13.13703016 35.79296875 16.1953125 C35.61620267 20.43769836 34.21592462 24.21103606 32.79296875 28.1953125 C32.13296875 28.1953125 31.47296875 28.1953125 30.79296875 28.1953125 C30.839375 27.53144531 30.88578125 26.86757812 30.93359375 26.18359375 C31.1743366 20.54335448 31.1743366 20.54335448 29.29296875 15.3203125 C26.05520711 12.56821511 22.7163121 10.7939702 18.79296875 9.1953125 C17.48392578 8.65197266 17.48392578 8.65197266 16.1484375 8.09765625 C11.703482 6.90233061 7.56146466 6.90425802 2.98046875 6.9453125 C1.70333008 6.93371094 1.70333008 6.93371094 0.40039062 6.921875 C-4.71566195 6.93746084 -9.2736054 7.48454027 -14.20581055 8.86425781 C-16.49459841 9.24288369 -18.01557089 8.89643247 -20.20703125 8.1953125 C-19.21703125 8.1953125 -18.22703125 8.1953125 -17.20703125 8.1953125 C-17.20703125 7.5353125 -17.20703125 6.8753125 -17.20703125 6.1953125 C-20.83703125 6.1953125 -24.46703125 6.1953125 -28.20703125 6.1953125 C-20.37605885 0.97466423 -9.23135856 0.5622021 0 0 Z"/>
<path transform="translate(382,394)" fill="#1AA0D8" d="M0 0 C0.33 0 0.66 0 1 0 C1.04898437 0.72703125 1.09796875 1.4540625 1.1484375 2.203125 C2.71220128 23.23305166 9.09631829 39.3478808 19.43017578 57.51416016 C20.11635986 58.72338135 20.11635986 58.72338135 20.81640625 59.95703125 C21.2347876 60.68510986 21.65316895 61.41318848 22.08422852 62.16333008 C23 64 23 64 23 66 C22.34 66 21.68 66 21 66 C20.67 64.35 20.34 62.7 20 61 C19.34 61 18.68 61 18 61 C16.99515796 59.04414675 15.99626195 57.08523763 15 55.125 C14.443125 54.03445313 13.88625 52.94390625 13.3125 51.8203125 C12 49 12 49 12 47 C11.34 47 10.68 47 10 47 C8.98759008 44.67145719 7.98955603 42.33828036 7 40 C6.68820801 39.27425781 6.37641602 38.54851562 6.05517578 37.80078125 C3.47063814 31.59891602 1.63126551 25.4172737 0.125 18.875 C-0.1121875 17.93785156 -0.349375 17.00070312 -0.59375 16.03515625 C-2.00560321 9.95398128 -2.02169211 5.9256493 0 0 Z"/>
<path transform="translate(513,317)" fill="#EC763A" d="M0 0 C0.33 0.66 0.66 1.32 1 2 C0.07202148 4.27490234 0.07202148 4.27490234 -1.37890625 7.0859375 C-1.88744141 8.09914063 -2.39597656 9.11234375 -2.91992188 10.15625 C-4.01262262 12.29747572 -5.11156348 14.43552875 -6.21679688 16.5703125 C-6.72404297 17.58609375 -7.23128906 18.601875 -7.75390625 19.6484375 C-8.23158447 20.57833496 -8.7092627 21.50823242 -9.20141602 22.46630859 C-10.27763184 24.97995426 -10.27763184 24.97995426 -9.14038086 27.33447266 C-8.76405518 27.88409668 -8.38772949 28.4337207 -8 29 C-9.10033815 30.60679516 -10.20542664 32.21033793 -11.3125 33.8125 C-11.92738281 34.70582031 -12.54226563 35.59914063 -13.17578125 36.51953125 C-14.68449569 38.57099521 -16.18393337 40.2376764 -18 42 C-16.83224682 35.72723447 -15.0405822 30.16374741 -12.375 24.375 C-12.02888672 23.60881348 -11.68277344 22.84262695 -11.32617188 22.05322266 C-7.87745595 14.52663317 -4.01384247 7.23772659 0 0 Z"/>
<path transform="translate(400,289)" fill="#7A469A" d="M0 0 C0.66 0 1.32 0 2 0 C3.15837658 10.42147142 3.1158941 20.78274065 3.0625 31.25 C3.05747243 32.97786328 3.05291176 34.70572798 3.04882812 36.43359375 C3.03792797 40.62243168 3.02073348 44.81119967 3 49 C2.67 49 2.34 49 2 49 C-0.31866184 38.56994279 -0.23327469 28.36296232 -0.125 17.75 C-0.11494488 16.02214063 -0.10582353 14.29427557 -0.09765625 12.56640625 C-0.07585539 8.37746077 -0.0414669 4.18879506 0 0 Z"/>
<path transform="translate(631,302)" fill="#F58062" d="M0 0 C6.228838 0.58395356 11.27886053 4.14646518 15.4375 8.625 C18.15458343 12.75496681 18.26504117 16.14091189 18 21 C17.34 21.66 16.68 22.32 16 23 C15.01 22.67 14.02 22.34 13 22 C13.66 21.34 14.32 20.68 15 20 C14.92209681 15.87113078 14.46989928 13.612293 11.9375 10.3125 C8.95319005 7.96314961 6.16631439 6.51520719 2.671875 5.08984375 C1 4 1 4 0.265625 1.87890625 C0.17796875 1.25886719 0.0903125 0.63882812 0 0 Z"/>
<path transform="translate(362,278)" fill="#7A62B5" d="M0 0 C-0.33 1.32 -0.66 2.64 -1 4 C-2.21236328 4.05607422 -2.21236328 4.05607422 -3.44921875 4.11328125 C-4.51785156 4.17902344 -5.58648437 4.24476563 -6.6875 4.3125 C-7.74324219 4.37050781 -8.79898437 4.42851562 -9.88671875 4.48828125 C-13.23009964 5.03782064 -15.23526262 6.08674018 -18 8 C-18.33 6.68 -18.66 5.36 -19 4 C-12.76335625 -0.53574091 -7.56198897 -0.44701413 0 0 Z"/>
<path transform="translate(640,160)" fill="#826EBF" d="M0 0 C6.17789704 -0.52577847 10.65087056 0.86501698 16 4 C19.67243041 7.12156585 20.25367142 9.68227683 20.75 14.3125 C20.8503009 15.87400262 20.93927992 17.43645794 21 19 C20.34 19 19.68 19 19 19 C18.97421875 18.39671875 18.9484375 17.7934375 18.921875 17.171875 C18.57917517 12.11873783 18.57917517 12.11873783 16.4375 7.625 C11.89923474 4.59948983 7.5355395 2.52652076 2 3.3125 C1.01 3.539375 0.02 3.76625 -1 4 C-0.67 2.68 -0.34 1.36 0 0 Z"/>
<path transform="translate(636,590)" fill="#2FBDA8" d="M0 0 C0.33 0 0.66 0 1 0 C2.3488141 12.85018835 1.768982 24.53214394 -2 37 C-2.33 37 -2.66 37 -3 37 C-2.93361328 36.42894531 -2.86722656 35.85789062 -2.79882812 35.26953125 C-1.90356796 27.04882113 -1.64886647 18.83540338 -1.39453125 10.57421875 C-1.35714844 9.49785156 -1.31976562 8.42148437 -1.28125 7.3125 C-1.25095703 6.33925781 -1.22066406 5.36601563 -1.18945312 4.36328125 C-1 2 -1 2 0 0 Z"/>
<path transform="translate(389,430)" fill="#1188C6" d="M0 0 C3.28340537 1.64170269 4.21784466 5.17963067 5.75 8.375 C8.65902146 14.33849399 11.69043554 20.1890115 14.96875 25.9609375 C16 28 16 28 16 30 C15.34 30 14.68 30 14 30 C13.67 28.35 13.34 26.7 13 25 C12.34 25 11.68 25 11 25 C9.99515796 23.04414675 8.99626195 21.08523763 8 19.125 C7.443125 18.03445313 6.88625 16.94390625 6.3125 15.8203125 C5 13 5 13 5 11 C4.34 11 3.68 11 3 11 C2.01 7.37 1.02 3.74 0 0 Z"/>
<path transform="translate(391.25,389.9375)" fill="#22619D" d="M0 0 C5.24254782 0.79277552 8.33809147 3.09516449 11.75 7.0625 C13.41328066 9.37287832 14.54478753 11.45120631 15.75 14.0625 C15.42 14.7225 15.09 15.3825 14.75 16.0625 C14.29109375 15.37542969 13.8321875 14.68835938 13.359375 13.98046875 C12.74578125 13.07941406 12.1321875 12.17835938 11.5 11.25 C10.89671875 10.35667969 10.2934375 9.46335937 9.671875 8.54296875 C6.80384556 4.84134539 5.00306342 3.2219808 0.3125 2.625 C-3.76413456 3.12563933 -5.34307311 4.2436618 -8.25 7.0625 C-7.38114612 2.02314747 -5.28619332 -0.52677101 0 0 Z"/>
<path transform="translate(569,597)" fill="#0D428E" d="M0 0 C5.95559199 1.62425236 8.61560442 3.82773701 11.921875 9.015625 C12.52515625 10.08296875 13.1284375 11.1503125 13.75 12.25 C14.67039062 13.86648438 14.67039062 13.86648438 15.609375 15.515625 C16.06828125 16.33546875 16.5271875 17.1553125 17 18 C16.34 18.33 15.68 18.66 15 19 C14.50371094 18.28714844 14.00742187 17.57429687 13.49609375 16.83984375 C9.7412032 11.54594683 6.0012842 6.67530535 1.25 2.2421875 C0.8375 1.83226562 0.425 1.42234375 0 1 C0 0.67 0 0.34 0 0 Z"/>
<path transform="translate(620,185)" fill="#434294" d="M0 0 C1.22596039 3.67788118 0.84310077 4.78449613 0 9 C6.6 9 13.2 9 20 9 C16.84685215 11.10209857 16.13896919 11.2434761 12.55078125 11.1953125 C11.27944336 11.18564453 11.27944336 11.18564453 9.98242188 11.17578125 C9.10134766 11.15902344 8.22027344 11.14226562 7.3125 11.125 C6.41982422 11.11597656 5.52714844 11.10695312 4.60742188 11.09765625 C2.40467686 11.07409748 0.20247412 11.04120329 -2 11 C-1.125 3.375 -1.125 3.375 0 0 Z"/>
<path transform="translate(528,350)" fill="#0C4E39" d="M0 0 C0.33 0 0.66 0 1 0 C0.67 7.26 0.34 14.52 0 22 C-0.33 22 -0.66 22 -1 22 C-1.33 17.05 -1.66 12.1 -2 7 C-4.97 9.475 -4.97 9.475 -8 12 C-6.59422879 8.98472262 -4.93873852 6.4052059 -2.9375 3.75 C-2.41027344 3.04359375 -1.88304687 2.3371875 -1.33984375 1.609375 C-0.89769531 1.07828125 -0.45554687 0.5471875 0 0 Z"/>
<path transform="translate(369,284)" fill="#6352A9" d="M0 0 C0.66 0 1.32 0 2 0 C5.22265625 5.2734375 5.22265625 5.2734375 6 7 C5.67 7.66 5.34 8.32 5 9 C4.67 9.99 4.34 10.98 4 12 C3.01 13.485 3.01 13.485 2 15 C1.50141665 12.7781577 1.00588859 10.55572681 0.515625 8.33203125 C0.12226508 6.55297161 -0.28050244 4.77598936 -0.6875 3 C-0.790625 2.34 -0.89375 1.68 -1 1 C-0.67 0.67 -0.34 0.34 0 0 Z"/>
<path transform="translate(571,199)" fill="#DB5797" d="M0 0 C0 3 0 3 -2.484375 5.59375 C-3.56537415 6.57090933 -4.65430121 7.53935246 -5.75 8.5 C-6.28882813 8.98597656 -6.82765625 9.47195312 -7.3828125 9.97265625 C-10.15847952 12.45721673 -12.9742239 14.82614144 -16 17 C-16.66 16.67 -17.32 16.34 -18 16 C-16.625 14.5 -16.625 14.5 -15 13 C-14.34 13 -13.68 13 -13 13 C-12.67 12.01 -12.34 11.02 -12 10 C-10.0390625 8.28125 -10.0390625 8.28125 -7.625 6.5 C-4.88830052 4.46753264 -2.34391972 2.48001829 0 0 Z"/>
<path transform="translate(540,560)" fill="#1D569B" d="M0 0 C5.66129431 4.69766975 10.85228904 9.74723372 16 15 C15.67 15.66 15.34 16.32 15 17 C14.278125 16.2575 13.55625 15.515 12.8125 14.75 C10.14127166 12.03305551 10.14127166 12.03305551 7.5 10.0625 C4.51433661 7.5993277 2.34439608 5.08120627 0 2 C0 1.34 0 0.68 0 0 Z"/>
<path transform="translate(433,430)" fill="#244890" d="M0 0 C0.66 0.33 1.32 0.66 2 1 C2.08082094 2.95766281 2.13910778 4.91626728 2.1875 6.875 C2.22230469 7.96554687 2.25710938 9.05609375 2.29296875 10.1796875 C2.19628906 11.11039062 2.09960938 12.04109375 2 13 C-1 15 -1 15 -3.1875 14.625 C-3.785625 14.41875 -4.38375 14.2125 -5 14 C-4.03320312 13.69449219 -4.03320312 13.69449219 -3.046875 13.3828125 C-0.68846128 12.1332065 -0.68846128 12.1332065 -0.390625 9.1796875 C-0.34421875 8.08914063 -0.2978125 6.99859375 -0.25 5.875 C-0.19328125 4.77929688 -0.1365625 3.68359375 -0.078125 2.5546875 C-0.05234375 1.71164062 -0.0265625 0.86859375 0 0 Z"/>
<path transform="translate(619,647)" fill="#078C8A" d="M0 0 C0.66 0.33 1.32 0.66 2 1 C1.48474397 6.28137429 -0.25477117 9.57221156 -3 14 C-4.25955231 10.22134307 -3.48087189 8.96588214 -2.0625 5.3125 C-1.68222656 4.31863281 -1.30195312 3.32476563 -0.91015625 2.30078125 C-0.60980469 1.54152344 -0.30945313 0.78226563 0 0 Z"/>
<path transform="translate(382,394)" fill="#1B94CB" d="M0 0 C0.33 0 0.66 0 1 0 C1.33 3.96 1.66 7.92 2 12 C1.01 12 0.02 12 -1 12 C-2.11658501 7.31034294 -1.80619523 4.46236469 0 0 Z"/>
<path transform="translate(646,324)" fill="#ED6256" d="M0 0 C0.33 0.99 0.66 1.98 1 3 C-0.32 4.32 -1.64 5.64 -3 7 C-3.66 6.01 -4.32 5.02 -5 4 C-7.58380177 3.74969023 -7.58380177 3.74969023 -10 4 C-6.77484237 2.26337666 -3.48670834 1.1094072 0 0 Z"/>
<path transform="translate(620,185)" fill="#343387" d="M0 0 C1.10844919 3.32534757 0.84454356 5.62182575 0 9 C2.64 9 5.28 9 8 9 C8 9.33 8 9.66 8 10 C4.7 10.33 1.4 10.66 -2 11 C-1.125 3.375 -1.125 3.375 0 0 Z"/>
<path transform="translate(465,432)" fill="#383781" d="M0 0 C0.66 0 1.32 0 2 0 C2.84681133 5.08086796 3.09038099 9.84828377 3 15 C2.67 15 2.34 15 2 15 C1.47217261 12.68889138 0.95246631 10.37647528 0.4375 8.0625 C0.28603516 7.40314453 0.13457031 6.74378906 -0.02148438 6.06445312 C-0.39173308 4.3854183 -0.70072071 2.69312549 -1 1 C-0.67 0.67 -0.34 0.34 0 0 Z"/>
<path transform="translate(569,316)" fill="#BF3159" d="M0 0 C0.66 0.33 1.32 0.66 2 1 C0.42210402 2.15330947 -1.1625482 3.29737927 -2.75 4.4375 C-3.63171875 5.07558594 -4.5134375 5.71367187 -5.421875 6.37109375 C-7.72699125 7.8275081 -9.34349572 8.55931821 -12 9 C-8.33494586 5.00175912 -4.88887148 2.39831431 0 0 Z"/>
<path transform="translate(578,606)" fill="#386DA9" d="M0 0 C0.99 0 1.98 0 3 0 C4.65 3.3 6.3 6.6 8 10 C7.34 10 6.68 10 6 10 C4.4921875 8.3203125 4.4921875 8.3203125 2.875 6.125 C2.33617187 5.40570312 1.79734375 4.68640625 1.2421875 3.9453125 C0 2 0 2 0 0 Z"/>
<path transform="translate(643,189)" fill="#564CA1" d="M0 0 C2.31 0 4.62 0 7 0 C7 0.99 7 1.98 7 3 C5.35 3.33 3.7 3.66 2 4 C2 3.01 2 2.02 2 1 C1.34 0.67 0.68 0.34 0 0 Z"/>
<path transform="translate(422,874)" fill="#464748" d="M0 0 C0.33 0.99 0.66 1.98 1 3 C1.66 3 2.32 3 3 3 C1.75023244 6.65316671 1.32901247 7.78065836 -2 10 C-1.34 6.7 -0.68 3.4 0 0 Z"/>
<path transform="translate(366,492)" fill="#2EB4DF" d="M0 0 C1.32 0.33 2.64 0.66 4 1 C4.33 1.66 4.66 2.32 5 3 C4.01 3.33 3.02 3.66 2 4 C1.67 5.65 1.34 7.3 1 9 C0.67 9 0.34 9 0 9 C0 6.03 0 3.06 0 0 Z"/>
<path transform="translate(555,325)" fill="#C53459" d="M0 0 C2 1 2 1 3 3 C-2.75 6 -2.75 6 -5 6 C-5 5.34 -5 4.68 -5 4 C-3.37373596 2.61767557 -1.7074998 1.28062485 0 0 Z"/>
<path transform="translate(497,350)" fill="#E68450" d="M0 0 C0.33 0.66 0.66 1.32 1 2 C1.66 2.33 2.32 2.66 3 3 C1.02 5.97 1.02 5.97 -1 9 C-2.25541557 5.23375329 -1.37061958 3.62811066 0 0 Z"/>
</svg>