<?xml version="1.0" standalone="no"?>
<!DOCTYPE svg PUBLIC "-//W3C//DTD SVG 20010904//EN"
 "http://www.w3.org/TR/2001/REC-SVG-20010904/DTD/svg10.dtd">
<svg version="1.0" xmlns="http://www.w3.org/2000/svg"
 width="1024.000000pt" height="1024.000000pt" viewBox="0 0 1024.000000 1024.000000"
 preserveAspectRatio="xMidYMid meet">

<g transform="translate(0.000000,1024.000000) scale(0.100000,-0.100000)"
fill="#000000" stroke="none">
<path d="M5404 8668 l-19 -23 23 19 c21 18 27 26 19 26 -2 0 -12 -10 -23 -22z"/>
<path d="M5936 8650 c4 -25 3 -40 -4 -40 -5 0 -13 -21 -17 -46 -14 -97 -113
-245 -236 -355 -93 -82 -369 -301 -347 -275 9 11 -14 35 -29 29 -7 -3 -16 2
-19 11 -3 9 -13 16 -21 16 -8 0 -12 3 -10 8 5 7 -25 40 -31 34 -2 -2 -20 12
-41 30 l-38 32 14 51 c8 27 17 59 20 70 l5 20 -15 -20 c-15 -19 -16 -19 -23
-2 -3 10 -1 30 5 44 6 14 10 27 8 30 -3 2 -68 -123 -145 -279 -169 -339 -225
-431 -312 -519 -72 -72 -124 -98 -159 -80 -66 36 -27 146 140 397 101 151 139
237 139 315 0 58 -24 124 -41 113 -7 -4 -9 -3 -6 3 4 6 -1 17 -10 24 -9 8 -14
9 -11 4 4 -6 3 -17 -2 -25 -5 -9 -1 -28 12 -54 15 -30 19 -50 14 -84 -8 -56
-45 -140 -87 -195 -49 -64 -191 -207 -201 -201 -4 3 -5 -1 -2 -9 3 -8 0 -18
-6 -22 -6 -3 -9 -3 -8 2 6 18 -29 49 -56 51 -17 1 -33 7 -37 13 -3 6 -10 10
-15 9 -16 -2 -84 33 -79 40 7 11 -13 16 -52 16 -37 -1 -37 -4 5 104 32 83 81
159 144 226 35 37 48 59 44 70 -5 14 -4 15 9 4 13 -11 14 -10 9 5 -5 12 -4 16
4 11 6 -3 14 0 19 8 5 8 33 27 63 41 30 14 44 22 30 19 -56 -14 -149 -73 -205
-130 -214 -216 -354 -607 -355 -990 0 -340 79 -684 227 -977 57 -114 94 -226
100 -303 5 -66 4 -73 -16 -83 -16 -9 -27 -8 -50 4 -57 29 -107 115 -153 265
-36 115 -49 140 -95 191 -68 75 -130 86 -174 31 -19 -24 -21 -36 -15 -97 12
-148 78 -321 204 -532 64 -109 65 -119 7 -123 -16 -1 -32 -1 -35 0 -3 2 -15 4
-27 5 -16 2 -23 -3 -23 -16 0 -10 5 -21 10 -24 6 -3 10 -11 10 -16 0 -6 -24 9
-52 33 -29 24 -71 57 -93 72 -22 16 -59 47 -81 68 -34 33 -42 37 -48 23 -3 -9
-11 -13 -17 -9 -6 3 -14 2 -18 -5 -5 -7 -19 -5 -47 9 -36 18 -37 18 -17 1 12
-10 20 -20 18 -23 -10 -10 133 -183 236 -285 271 -265 569 -456 1062 -677 535
-241 737 -371 911 -586 27 -34 27 -33 -5 28 -51 96 -177 247 -385 462 -275
285 -378 406 -498 588 -182 276 -282 597 -293 934 -9 247 24 440 112 665 133
340 299 570 736 1019 102 105 210 222 240 259 170 217 249 417 219 560 -13 63
-23 75 -14 15z"/>
<path d="M6387 8629 c-101 -27 -179 -145 -202 -303 l-7 -49 122 5 c113 5 126
7 188 39 83 43 112 82 112 153 0 58 -23 105 -66 132 -31 21 -110 33 -147 23z"/>
<path d="M3508 7450 c-58 -17 -100 -53 -124 -104 -30 -65 -30 -118 0 -181 46
-93 95 -132 221 -173 50 -17 98 -33 108 -37 15 -6 17 -1 17 36 0 24 7 75 15
114 8 38 15 92 15 120 0 154 -123 264 -252 225z"/>
<path d="M5386 7261 c-93 -85 -211 -201 -203 -201 4 0 2 -6 -5 -14 -7 -7 -19
-11 -27 -8 -10 4 -12 1 -6 -9 7 -12 6 -12 -7 -1 -15 12 -19 9 -33 -17 -8 -17
-20 -43 -25 -58 -9 -26 -9 -27 5 -9 8 11 15 16 15 12 0 -5 6 -3 13 3 8 6 17 8
20 4 4 -3 7 0 7 8 0 12 2 12 10 -1 5 -9 5 -19 -2 -27 -6 -7 -7 -13 -3 -13 4 0
1 -8 -6 -17 -8 -10 22 16 66 57 44 41 79 78 78 82 -2 5 3 7 10 6 6 -2 11 3 10
10 -2 6 3 11 10 10 6 -2 11 3 9 10 -1 8 1 11 6 8 12 -7 84 43 77 53 -2 5 3 8
13 7 9 0 16 5 14 12 -1 8 1 11 6 8 5 -3 32 10 61 28 64 42 77 54 32 31 l-34
-17 5 26 c4 21 3 24 -9 15 -7 -7 -17 -9 -20 -5 -4 4 -1 11 7 16 13 8 12 10 -2
10 -10 0 -18 7 -18 15 0 25 -17 17 -74 -34z m48 3 c3 -8 2 -12 -3 -9 -6 3 -14
-2 -19 -11 -8 -15 -10 -15 -15 0 -4 10 -1 16 8 16 8 0 15 5 15 10 0 15 7 12
14 -6z m-214 -267 c0 -2 -17 -19 -37 -38 l-38 -34 34 38 c33 34 41 42 41 34z"/>
<path d="M5595 7270 c-3 -6 1 -7 9 -4 18 7 21 14 7 14 -6 0 -13 -4 -16 -10z"/>
<path d="M5950 7184 c-150 -44 -372 -164 -436 -236 l-19 -20 35 14 c125 52
305 49 480 -8 201 -65 372 -57 437 20 13 16 22 30 21 32 -2 2 -24 -4 -48 -12
-85 -30 -197 0 -258 67 -41 45 -93 152 -79 161 26 16 -52 6 -133 -18z"/>
<path d="M5140 7070 c-6 -11 -8 -20 -6 -20 3 0 10 9 16 20 6 11 8 20 6 20 -3
0 -10 -9 -16 -20z"/>
<path d="M5026 6845 c-9 -26 -7 -32 5 -12 6 10 9 21 6 23 -2 3 -7 -2 -11 -11z"/>
<path d="M5030 6792 c0 -12 3 -12 15 -2 8 7 15 13 15 15 0 1 -7 2 -15 2 -8 0
-15 -7 -15 -15z"/>
<path d="M4972 6708 c-15 -41 -10 -45 11 -8 10 16 14 31 9 34 -4 2 -13 -9 -20
-26z"/>
<path d="M5223 6658 c-163 -223 -246 -472 -246 -748 -1 -198 29 -333 112 -500
99 -200 152 -269 615 -780 23 -25 44 -44 49 -42 4 1 6 -2 5 -7 -3 -8 60 -101
68 -101 3 0 1 7 -4 17 -6 9 -6 29 -1 46 10 34 29 59 29 38 0 -10 3 -11 14 -2
9 7 17 8 20 2 3 -5 0 -12 -6 -14 -8 -3 -6 -6 5 -6 9 -1 17 4 17 9 0 6 16 10
36 8 l36 -2 -22 -18 -22 -18 25 2 c14 1 24 5 21 9 -2 4 0 10 6 14 6 4 8 10 6
14 -5 7 4 10 37 12 6 0 22 -2 33 -6 34 -11 37 29 8 87 -54 106 -232 353 -374
518 -160 185 -341 451 -295 434 8 -4 13 -10 10 -14 -6 -9 56 -7 71 3 7 4 37
-20 70 -55 137 -143 134 -142 176 -124 9 4 22 5 28 1 5 -3 10 1 10 9 0 10 9
16 25 16 14 0 25 5 25 10 0 6 7 10 15 10 8 0 15 8 15 17 0 13 9 8 37 -18 20
-18 -13 20 -74 86 -213 230 -310 359 -397 534 -92 182 -133 364 -122 544 3 53
4 97 3 97 -2 0 -30 -37 -64 -82z"/>
<path d="M3799 5198 c11 -15 10 -20 -3 -34 -9 -8 -21 -25 -27 -36 -10 -19 -11
-19 -32 -1 -17 14 -16 11 3 -11 53 -59 180 -110 262 -104 l43 3 -53 33 c-30
18 -77 54 -105 80 -76 68 -104 91 -88 70z"/>
<path d="M4292 4764 c-40 -40 -43 -46 -36 -81 4 -21 11 -48 15 -61 20 -54 10
-128 -32 -232 -44 -111 -47 -156 -12 -192 16 -16 26 -16 116 -6 353 42 938
-138 1182 -363 45 -41 46 -42 85 -30 46 13 55 28 90 143 l23 77 -52 60 c-153
176 -446 350 -841 499 -215 81 -310 123 -400 178 -37 22 -73 43 -80 46 -9 3
-33 -13 -58 -38z"/>
<path d="M6110 4555 c0 -5 5 -17 10 -25 5 -8 10 -10 10 -5 0 6 -5 17 -10 25
-5 8 -10 11 -10 5z"/>
<path d="M4353 4081 c-45 -4 -85 -9 -88 -13 -3 -3 -35 -63 -71 -134 -106 -209
-259 -426 -414 -588 -41 -43 -74 -84 -72 -90 2 -6 25 -67 52 -136 84 -217 132
-391 194 -702 42 -211 92 -547 100 -673 3 -49 9 -138 12 -198 4 -59 9 -106 10
-104 9 9 162 505 334 1082 38 127 82 274 98 327 l30 97 -31 28 c-59 55 -86
163 -58 235 15 41 72 100 116 119 113 52 254 -11 294 -130 15 -47 14 -112 -3
-153 -28 -65 -119 -128 -188 -128 -11 0 -21 -12 -26 -32 -5 -18 -98 -330 -206
-693 -242 -809 -236 -788 -233 -792 2 -1 26 28 54 65 293 383 715 827 1013
1068 54 44 229 172 256 188 1 1 -9 60 -22 131 -13 72 -29 222 -36 337 -11 185
-10 223 6 364 l18 157 -24 19 c-45 37 -186 127 -247 158 -262 132 -620 211
-868 191z"/>
<path d="M6207 4068 c-15 -8 -86 -23 -144 -30 -16 -2 -15 7 -18 -133 -4 -189
-50 -324 -161 -475 -53 -73 -150 -170 -207 -208 -20 -14 -36 -26 -34 -28 5 -6
214 74 279 107 123 62 261 161 352 253 121 124 186 224 245 374 26 65 26 81 1
27 -10 -22 -19 -35 -19 -28 -1 7 -13 9 -32 6 -21 -3 -29 -1 -24 6 3 7 -2 11
-14 11 -12 0 -21 -5 -21 -11 0 -6 -6 -4 -14 4 -9 8 -26 12 -39 10 -19 -4 -32
-20 -55 -74 -23 -52 -36 -69 -51 -69 -10 0 -21 -6 -24 -12 -11 -31 -14 2 -6
49 5 29 8 93 7 142 -3 84 -4 89 -21 79z m291 -173 c-3 -3 -9 2 -12 12 -6 14
-5 15 5 6 7 -7 10 -15 7 -18z"/>
</g>
</svg>
